<?xml version="1.0" encoding="utf-8"?>
<!-- Generator: Adobe Illustrator 26.1.0, SVG Export Plug-In . SVG Version: 6.00 Build 0)  -->
<svg version="1.1" id="레이어_1" xmlns="http://www.w3.org/2000/svg" xmlns:xlink="http://www.w3.org/1999/xlink" x="0px"
	 y="0px" viewBox="0 0 132.98 25.25" style="enable-background:new 0 0 132.98 25.25;" xml:space="preserve">
<style type="text/css">
	.st0{enable-background:new    ;}
	.st1{fill:#333D4B;}
</style>
<g class="st0">
	<path class="st1" d="M0,5.71h2.88l0.26,1.8h0.07c1.13-1.18,2.38-2.14,4.13-2.14c1.92,0,3.05,0.86,3.7,2.35
		c1.22-1.3,2.52-2.35,4.27-2.35c2.86,0,4.18,2.02,4.18,5.4v8.38h-3.53v-7.94c0-2.09-0.6-2.81-1.87-2.81c-0.77,0-1.63,0.5-2.59,1.51
		v9.24h-3.5v-7.94c0-2.09-0.62-2.81-1.9-2.81c-0.77,0-1.63,0.5-2.57,1.51v9.24H0V5.71z"/>
	<path class="st1" d="M22.99,14.11v-8.4h3.53v7.95c0,2.06,0.58,2.81,1.87,2.81c1.1,0,1.82-0.48,2.74-1.68V5.71h3.53v13.44h-2.88
		l-0.26-1.92h-0.1c-1.15,1.37-2.45,2.26-4.27,2.26C24.24,19.49,22.99,17.47,22.99,14.11z"/>
	<path class="st1" d="M37.58,12.43c0-4.46,3.22-7.06,6.86-7.06c1.66,0,2.93,0.65,3.91,1.49l-1.68,2.28
		c-0.67-0.58-1.3-0.89-2.04-0.89c-2.06,0-3.46,1.66-3.46,4.18c0,2.54,1.42,4.18,3.34,4.18c0.96,0,1.87-0.46,2.62-1.08l1.42,2.33
		c-1.3,1.13-2.93,1.63-4.42,1.63C40.42,19.49,37.58,16.9,37.58,12.43z"/>
	<path class="st1" d="M54.24,17.74h-0.1l-0.31,1.42h-2.76V0h3.53v4.82l-0.1,2.16c1.06-0.96,2.4-1.61,3.72-1.61
		c3.31,0,5.3,2.71,5.3,6.82c0,4.63-2.76,7.3-5.71,7.3C56.62,19.49,55.32,18.87,54.24,17.74z M59.9,12.26c0-2.57-0.82-3.98-2.66-3.98
		c-0.91,0-1.73,0.46-2.64,1.39v5.9c0.84,0.74,1.7,1.01,2.42,1.01C58.66,16.58,59.9,15.19,59.9,12.26z"/>
	<path class="st1" d="M65.69,12.43c0-4.46,3.1-7.06,6.46-7.06s6.46,2.59,6.46,7.06c0,4.46-3.1,7.06-6.46,7.06
		S65.69,16.9,65.69,12.43z M75,12.43c0-2.52-1.03-4.18-2.86-4.18s-2.86,1.66-2.86,4.18c0,2.54,1.03,4.18,2.86,4.18
		S75,14.98,75,12.43z"/>
</g>
<g class="st0">
	<path class="st1" d="M88.85,17.86H88.8l-0.17,1.3H87.5V0.07h1.39v5.47l-0.07,2.45c1.27-1.08,2.78-1.97,4.32-1.97
		c3.41,0,5.14,2.59,5.14,6.53c0,4.37-2.64,6.91-5.64,6.91C91.44,19.47,90.02,18.84,88.85,17.86z M96.79,12.55
		c0-3.07-1.06-5.3-3.91-5.3c-1.22,0-2.54,0.72-3.98,2.04v7.39c1.32,1.15,2.69,1.56,3.62,1.56C95.02,18.24,96.79,15.99,96.79,12.55z"
		/>
	<path class="st1" d="M101.98,17.26V0.07h1.39V17.4c0,0.6,0.24,0.86,0.58,0.86c0.1,0,0.19,0,0.46-0.05l0.22,1.1
		c-0.24,0.07-0.48,0.14-0.94,0.14C102.53,19.47,101.98,18.75,101.98,17.26z"/>
	<path class="st1" d="M107.33,12.77c0-4.27,2.69-6.74,5.78-6.74c3.1,0,5.79,2.47,5.79,6.74c0,4.25-2.69,6.7-5.79,6.7
		C110.02,19.47,107.33,17.02,107.33,12.77z M117.46,12.77c0-3.26-1.85-5.52-4.34-5.52c-2.5,0-4.32,2.26-4.32,5.52
		c0,3.26,1.82,5.5,4.32,5.5C115.61,18.27,117.46,16.03,117.46,12.77z"/>
	<path class="st1" d="M121.56,21.75c0-1.13,0.74-2.26,1.92-3.05v-0.12c-0.65-0.38-1.15-1.06-1.15-2.06c0-1.1,0.84-1.94,1.42-2.38
		v-0.1c-0.82-0.67-1.63-1.94-1.63-3.48c0-2.66,2.06-4.54,4.58-4.54c0.7,0,1.3,0.17,1.7,0.34h4.37v1.15h-2.88
		c0.77,0.67,1.32,1.78,1.32,3.07c0,2.64-1.99,4.51-4.51,4.51c-0.7,0-1.49-0.19-2.06-0.53c-0.53,0.43-1.01,0.96-1.01,1.78
		c0,0.91,0.55,1.61,2.4,1.61h2.69c2.9,0,4.27,0.91,4.27,2.95c0,2.23-2.4,4.34-6.14,4.34C123.65,25.25,121.56,23.91,121.56,21.75z
		 M131.59,21.1c0-1.37-1.01-1.87-2.9-1.87h-2.62c-0.29,0-0.96-0.07-1.61-0.22c-1.1,0.77-1.58,1.7-1.58,2.57
		c0,1.56,1.51,2.62,4.13,2.62C129.79,24.19,131.59,22.63,131.59,21.1z M129.86,10.56c0-2.11-1.44-3.41-3.17-3.41
		c-1.75,0-3.19,1.3-3.19,3.41c0,2.09,1.49,3.48,3.19,3.48C128.38,14.04,129.86,12.65,129.86,10.56z"/>
</g>
</svg>
