<?xml version="1.0" encoding="utf-8"?>
<!-- Generator: Adobe Illustrator 26.1.0, SVG Export Plug-In . SVG Version: 6.00 Build 0)  -->
<svg version="1.1" id="레이어_1" xmlns="http://www.w3.org/2000/svg" xmlns:xlink="http://www.w3.org/1999/xlink" x="0px"
	 y="0px" viewBox="0 0 18.01 18" style="enable-background:new 0 0 18.01 18;" xml:space="preserve">
<style type="text/css">
	.st0{fill:#4E5968;}
</style>
<path id="magnifying-glass-solid" class="st0" d="M17.59,15.6l-4.21-4.21c2.25-3.35,1.36-7.9-2-10.15s-7.9-1.36-10.15,2
	s-1.36,7.9,2,10.15c2.47,1.66,5.69,1.66,8.16,0l4.21,4.21c0.55,0.55,1.44,0.55,1.99,0S18.14,16.15,17.59,15.6z M2.79,7.31
	c0-2.49,2.01-4.5,4.5-4.5s4.5,2.01,4.5,4.5s-2.01,4.5-4.5,4.5l0,0C4.8,11.81,2.79,9.8,2.79,7.31z"/>
</svg>
